Coordinates
version=1
nRows=13
nColumns=36
inDegrees=yes

Units are S.I. units (second, meters, Newtons, ...)
If the header above contains a line with 'inDegrees', this indicates whether rotational values are in degrees (yes) or radians (no).

endheader
time	pelvis_tilt	pelvis_list	pelvis_rotation	pelvis_tx	pelvis_ty	pelvis_tz	hip_flexion_r	hip_adduction_r	hip_rotation_r	knee_angle_r	knee_angle_r_beta	ankle_angle_r	subtalar_angle_r	mtp_angle_r	hip_flexion_l	hip_adduction_l	hip_rotation_l	knee_angle_l	knee_angle_l_beta	ankle_angle_l	subtalar_angle_l	mtp_angle_l	lumbar_extension	lumbar_bending	lumbar_rotation	arm_flex_r	arm_add_r	arm_rot_r	elbow_flex_r	pro_sup_r	arm_flex_l	arm_add_l	arm_rot_l	elbow_flex_l	pro_sup_l
      7.25000000	     -4.14797476	     -2.70482662	     -3.94778204	      0.10988828	      0.68691455	      0.07591571	     48.86626398	     -6.48291253	     -5.21411367	      3.16226332	      0.05519191	     -3.54666505	     -1.89945223	     -7.49999987	     48.27970180	      9.29451201	      6.89965167	     80.14490932	      1.39879255	     33.10463781	    -11.24464027	     -7.49999987	    -20.33844296	     -1.08487846	     -1.64376733	     76.92280790	      0.99430728	     64.08661021	    122.64743092	     91.60648589	     82.89592042	     -0.29935825	     76.91963355	    122.13694154	     74.22546247
      7.26666670	     -4.27461949	     -2.64988182	     -3.83302998	      0.10538678	      0.68843447	      0.07375072	     49.26031648	     -6.71578710	     -5.55731544	      3.26751649	      0.05702892	     -3.68676931	     -1.92772311	     -7.49999987	     48.88504424	      9.44036393	      6.74545645	     80.56761612	      1.40617017	     32.54365615	    -11.37228777	     -7.49999987	    -20.72981218	     -1.05754810	     -1.62620285	     77.07843126	      0.69580826	     63.89959010	    122.68273933	     91.58533192	     82.88022070	     -0.32443122	     76.90511306	    122.17125000	     74.22263237
      7.28333330	     -4.65647291	     -2.56818982	     -3.79951918	      0.10734779	      0.68406395	      0.07446320	     50.04692979	     -6.90194920	     -5.87689796	      3.43239936	      0.05990667	     -3.98642228	     -1.94726240	     -7.49999987	     49.54767162	      9.56471421	      6.52666665	     81.36067632	      1.42001168	     32.02430718	    -11.39822161	     -7.49999987	    -20.73446304	     -1.02307647	     -1.54455286	     77.00407177	      0.71407699	     64.12203697	    122.86157042	     88.38042038	     82.72722030	     -0.19634296	     77.00921445	    122.36144010	     72.33124156
      7.30000000	     -4.77123274	     -2.58076179	     -3.73660890	      0.10705070	      0.68028741	      0.07340583	     50.42211218	     -7.12516485	     -5.92537078	      3.32976142	      0.05811530	     -4.52252983	     -2.20629994	     -7.49999987	     50.16304599	      9.48445427	      6.28103918	     82.22671841	      1.43512697	     32.07662687	    -10.88960883	     -7.49999987	    -20.97299006	     -0.94572608	     -1.52412887	     77.26961661	      0.59204791	     64.46940640	    122.96086341	     87.16595734	     83.12146965	     -0.02558211	     77.35728774	    122.20117202	     71.65182143
      7.31666670	     -4.96567169	     -2.56448153	     -3.71575688	      0.10482329	      0.67872051	      0.07312213	     50.71670332	     -7.27910891	     -6.32040879	      3.08266737	      0.05380270	     -4.43605270	     -2.06445698	     -7.49999987	     50.94059710	      9.37176104	      5.96327678	     83.02836014	      1.44911826	     32.24082264	    -10.50655456	     -7.49999987	    -20.97318301	     -0.91997202	     -1.61453446	     77.21503083	      0.72743301	     64.73413260	    123.21610711	     85.14837859	     83.23946225	     -0.10688160	     77.44173415	    122.13314535	     70.58889442
      7.33333330	     -4.99673259	     -2.61886590	     -3.33039299	      0.10427111	      0.67629120	      0.07224724	     50.82685527	     -7.63801054	     -6.57728125	      2.87258745	      0.05013611	     -4.15734175	     -2.27924049	     -7.49999987	     51.25975494	      9.35401259	      5.87197577	     83.55897813	      1.45837929	     33.17091446	     -9.44321396	     -7.49999987	    -21.21515298	     -0.78831228	     -1.80035131	     77.36928604	      0.50367652	     64.78397686	    123.07515072	     84.02412480	     83.84768532	     -0.01243197	     77.72057122	    121.67478491	     70.01812413
      7.35000000	     -5.19461363	     -2.77523563	     -3.17374314	      0.10292289	      0.67450729	      0.07136662	     51.34226055	     -7.92640898	     -6.53151455	      3.20150531	      0.05587681	     -4.21269901	     -2.21156060	     -7.49999987	     51.69620176	      9.16760703	      5.56807024	     84.18974841	      1.46938831	     34.32048717	     -8.99575102	     -7.49999987	    -21.48425196	     -0.67344240	     -1.81310634	     77.53998479	      0.17410982	     64.67523103	    122.91483738	     82.80571222	     84.39083940	      0.26431910	     78.14705259	    121.36976522	     69.37808789
      7.36666670	     -5.30547239	     -3.14395704	     -3.31567096	      0.10377541	      0.67161100	      0.07169810	     51.84491726	     -7.75786499	     -6.18552570	      3.71787027	      0.06488908	     -3.27443771	     -2.47044769	     -7.49999987	     52.49703987	      8.57496461	      5.33523953	     85.08581480	      1.48502762	     32.58059797	     -9.39258293	     -7.49999987	    -21.82662239	     -0.45915253	     -1.52668379	     77.93539979	     -0.24449429	     64.78606818	    122.88771271	     81.52002216	     84.73072752	      0.63586451	     78.48667813	    121.17686486	     68.71082631
      7.38333330	     -5.73922263	     -3.44563148	     -3.24614566	      0.10373434	      0.66928086	      0.07149294	     52.34903122	     -7.76800994	     -5.66176755	      4.15252914	      0.07247531	     -2.30828071	     -2.27226022	     -7.49999987	     53.22892036	      8.23283872	      5.25081588	     85.58664214	      1.49376870	     31.78968011	     -9.28908717	     -7.49999987	    -21.74102109	     -0.17995985	     -1.30776640	     77.96368324	     -0.58335250	     64.40439539	    123.03975726	     90.20235640	     84.78072875	      1.14877467	     78.85682696	    120.92385177	     72.19730728
      7.40000000	     -5.84806537	     -3.49717394	     -3.28436797	      0.10052512	      0.66787742	      0.07070941	     52.50436590	     -7.95359168	     -5.36516430	      4.48039819	      0.07819770	     -1.81678373	     -2.20157170	     -7.49999987	     54.10977643	      8.10538345	      5.02720846	     86.06387165	      1.50209793	     31.15579536	     -9.32844329	     -7.49999987	    -21.94368620	     -0.20109784	     -1.39912714	     78.15168916	     -0.67981123	     64.41135512	    123.10794004	     89.10736920	     84.86941990	      1.20780306	     79.05350157	    120.91250597	     71.66422644
      7.41666670	     -6.00342345	     -3.59480590	     -3.37152378	      0.10407815	      0.66699048	      0.07129180	     52.62459738	     -8.03043173	     -4.67869411	      4.00630203	      0.06992316	     -0.83170153	     -1.93314425	     -7.49999987	     54.72420314	      7.86414124	      5.06308353	     86.45280168	      1.50888604	     30.54241305	     -9.67558409	     -7.49999987	    -21.90062491	     -0.22526954	     -1.18762033	     77.94000953	     -1.10795047	     64.55523132	    123.36307633	     89.23339534	     84.45909876	      1.36857815	     79.61789542	    121.17040296	     71.76613110
      7.43333330	     -5.90175559	     -3.52430863	     -3.31960864	      0.10157728	      0.66542766	      0.07086710	     52.41236139	     -8.33487623	     -4.70883756	      3.74007257	      0.06527658	     -0.79460577	     -1.63045244	     -7.49999987	     55.32421632	      8.04496023	      4.87346460	     87.00254337	      1.51848084	     29.00835764	    -10.17747008	     -7.49999987	    -21.95697112	     -0.33509696	     -1.12958957	     77.73948653	     -1.30451611	     64.56545056	    123.50708462	     87.21758839	     84.13720331	      1.39925634	     79.71554206	    121.13601397	     70.76449359
      7.45000000	     -5.76797847	     -3.34358809	     -3.47729637	      0.10244720	      0.66471982	      0.07088640	     52.20976679	     -8.52157111	     -4.83459162	      3.55904645	      0.06211708	     -0.89110266	     -2.22150252	     -7.49999987	     55.20564948	      8.17376048	      4.83776473	     86.88388062	      1.51640978	     28.57171154	    -10.35359607	     -7.49999987	    -22.13838740	     -0.58370450	     -1.05513491	     77.51575538	     -1.48288419	     64.59449695	    123.54183150	     84.87565252	     83.69539124	      1.34176829	     79.71595388	    121.12447855	     69.66076655
